<?xml version="1.0" encoding="UTF-8"?><svg id="Layer_1" xmlns="http://www.w3.org/2000/svg" viewBox="0 0 140.93 61.85"><defs><style>.cls-1{fill:#231f20;}</style></defs><path class="cls-1" d="m19.51,43.4l-1.85,14.41h-8.45L17.9,4.04h11.67l9.02,53.77h-8.69l-2.09-14.41s-2.29.4-4.1.4c-1.96,0-4.19-.4-4.19-.4Zm7.33-7.57c-1.29-9.18-2.42-17.87-3.06-23.91h-.32c-.16,4.43-1.85,15.94-2.9,23.91,0,0,1.55.28,3.23.28,1.5,0,3.05-.28,3.05-.28Z"/><path class="cls-1" d="m42.99,57.81l-7.41-53.77h8.85c1.21,11.59,2.9,29.46,3.3,39.6h.16c1.21-11.35,3.46-27.85,4.99-39.6h8.05c1.61,12.16,3.86,27.37,4.91,39.2h.16c.64-10.46,2.25-27.05,3.46-39.2h8.37l-6.86,53.77h-9.48c-1.32-10.4-2.61-23.4-3.76-33.98-.18-1.7-.33-8.05-.33-8.05h-.37s-.31,8.09-.31,8.09c-1.21,11.27-2.82,22.35-4.43,33.94h-9.31Z"/><path class="cls-1" d="m80.8,4.04h11.51c8.21,0,13.04,3.3,13.04,12.96l.08,10.23c0,8.29-3.54,10.46-5.55,11.35,3.06,1.45,4.91,2.65,4.91,9.97,0,4.51-.08,6.04.48,9.26h-8.05c-.64-3.22-.56-4.54-.56-8.49,0-6.52-.8-7.62-5.63-7.62h-1.93v16.1h-8.29V4.04Zm8.29,30.81h1.93c4.35,0,6.02-1.34,6.02-7.21l-.07-10.08c0-4.19-.8-6.68-5.55-6.68h-2.33v23.97Z"/><path class="cls-1" d="m129.88,31.8s-3.32.2-5.92.2c-2.84,0-5.91-.2-5.91-.2v18.36h13.68l-1.05,7.65h-20.93V4.04h20.77v7.73h-12.48v12.39s3.06.18,5.88.18,5.96-.18,5.96-.18v7.65Z"/></svg>